<svg id="Layer_1" data-name="Layer 1" xmlns="http://www.w3.org/2000/svg" viewBox="0 0 205.64 38.09"><defs><style>.cls-1{fill:#3790c7;}.cls-2{fill:#010101;}.cls-3{fill:#fff;}</style></defs><title>Drupal Wiki Logo</title><rect class="cls-1" x="124.91" width="80.73" height="33.5"/><path class="cls-2" d="M1.73,5.59h8.84c3.46,0,8.5.34,11.81,4.82a14.13,14.13,0,0,1,2.86,9.07c0,7.87-4.14,14-14.26,14H1.73ZM7.34,28.52h4c6,0,8.35-4,8.35-9a10.46,10.46,0,0,0-1.88-6.25c-1.17-1.51-3-2.78-6.43-2.78h-4Z" transform="translate(-1.73 -2.58)"/><path class="cls-2" d="M29.05,12.78h4.67v2.71a5.91,5.91,0,0,1,5.72-3.35v5h-.22c-3.46,0-5.23,1.62-5.23,5.19V33.45H29.05Z" transform="translate(-1.73 -2.58)"/><path class="cls-2" d="M61.49,33.45H56.86V30.7c-.86,1.62-2.71,3.43-6.43,3.39-6.77,0-8.05-5.2-8.05-8.81V12.78H47.3V24c0,3,1,5.46,4.51,5.42s4.74-2.33,4.74-5.27V12.78h4.93Z" transform="translate(-1.73 -2.58)"/><path class="cls-2" d="M66.38,12.78H71v3a8.61,8.61,0,0,1,7.3-3.65c7.23,0,10.27,6.14,10.27,11.14,0,5.87-4.18,10.8-10.23,10.8-4,0-6.21-2.07-7-3.39v10H66.38ZM83.65,23.09a6.23,6.23,0,0,0-6.32-6.36,6.12,6.12,0,0,0-4.48,1.88,6.53,6.53,0,0,0-1.77,4.56,6.23,6.23,0,0,0,6.28,6.32,6.22,6.22,0,0,0,6.28-6.36Z" transform="translate(-1.73 -2.58)"/><path class="cls-2" d="M113.72,33.45h-4.93v-3a7.69,7.69,0,0,1-7,3.61c-6.62,0-10.5-5.16-10.5-11,0-6.51,4.7-11,10.5-11a7.72,7.72,0,0,1,7,3.65v-3h4.93ZM96.26,23.21a6.2,6.2,0,0,0,6.28,6.29A5.85,5.85,0,0,0,108,26.18a7.09,7.09,0,0,0,.79-2.9,6.45,6.45,0,0,0-.56-2.9,6.06,6.06,0,0,0-5.76-3.65,6.22,6.22,0,0,0-6.25,6.44Z" transform="translate(-1.73 -2.58)"/><rect class="cls-2" x="116.88" y="3.01" width="4.93" height="27.86"/><polygon class="cls-3" points="127.9 2.96 133.64 2.96 138.4 23.22 143.27 2.96 147.58 2.96 152.49 23.26 157.21 2.96 162.91 2.96 155.36 30.93 150.3 30.93 145.39 11.09 140.51 30.93 135.3 30.93 127.9 2.96"/><path class="cls-3" d="M167.18,5.54h4.95V10h-4.95Zm0,7.22h4.95V33.51h-4.95Z" transform="translate(-1.73 -2.58)"/><polygon class="cls-3" points="175.42 2.96 180.37 2.96 180.37 18.08 187.51 10.18 193.44 10.18 184.82 19.32 193.47 30.93 187.81 30.93 180.37 20.57 180.37 30.93 175.42 30.93 175.42 2.96"/><path class="cls-3" d="M198.15,5.54h4.95V10h-4.95Zm0,7.22h4.95V33.51h-4.95Z" transform="translate(-1.73 -2.58)"/></svg>